<svg width="250" height="290" viewBox="0 0 250 290" fill="none" xmlns="http://www.w3.org/2000/svg">
<rect y="20" width="250" height="250" rx="24" fill="black"/>
<path d="M23.3 224V63.4H56.3V125.66H71.92L98.32 63.4H134.18L101.18 140.18L135.5 224H99.2L71.92 156.02H56.3V224H23.3Z" fill="#D9D9D9"/>
<path d="M123.52 224V63.4H175.22C191.5 63.4 204.48 67.14 214.16 74.62C223.84 81.9533 228.68 91.9267 228.68 104.54C228.68 111.58 226.993 117.74 223.62 123.02C220.393 128.3 215.993 132.407 210.42 135.34C204.993 138.273 199.053 139.74 192.6 139.74V140.4C199.787 140.253 206.313 141.573 212.18 144.36C218.193 147.147 223.033 151.327 226.7 156.9C230.367 162.473 232.2 169.367 232.2 177.58C232.2 186.967 229.927 195.18 225.38 202.22C220.98 209.113 214.673 214.467 206.46 218.28C198.247 222.093 188.493 224 177.2 224H123.52ZM155.42 197.38H175.88C183.067 197.38 188.713 195.473 192.82 191.66C196.927 187.847 198.98 182.567 198.98 175.82C198.98 169.073 196.927 163.793 192.82 159.98C188.713 156.02 183.067 154.04 175.88 154.04H155.42V197.38ZM155.42 128.08H174.78C181.233 128.08 186.293 126.393 189.96 123.02C193.627 119.5 195.46 114.807 195.46 108.94C195.46 102.927 193.627 98.3067 189.96 95.08C186.293 91.7067 181.233 90.02 174.78 90.02H155.42V128.08Z" fill="#D9D9D9"/>
</svg>
